<?xml version="1.0" standalone="no"?>
<!DOCTYPE svg PUBLIC "-//W3C//DTD SVG 20010904//EN"
 "http://www.w3.org/TR/2001/REC-SVG-20010904/DTD/svg10.dtd">
<svg version="1.0" xmlns="http://www.w3.org/2000/svg"
 width="256.000000pt" height="256.000000pt" viewBox="0 0 256.000000 256.000000"
 preserveAspectRatio="xMidYMid meet">
<metadata>
Created by potrace 1.16, written by Peter Selinger 2001-2019
</metadata>
<g transform="translate(0.000000,256.000000) scale(0.100000,-0.100000)"
fill="#000000" stroke="none">
<path d="M1126 2154 c-359 -80 -613 -325 -702 -674 -14 -57 -19 -108 -18 -210
1 -117 4 -147 28 -224 77 -255 233 -443 461 -556 140 -69 240 -93 390 -94 421
0 769 279 872 702 20 82 22 264 4 347 -76 350 -319 607 -656 696 -107 28 -285
34 -379 13z m33 -518 c50 -65 91 -123 91 -127 0 -5 -58 -9 -129 -9 -71 0 -143
-5 -162 -12 -131 -44 -202 -181 -153 -296 21 -52 70 -100 129 -128 43 -20 65
-24 156 -24 103 0 106 -1 125 -27 42 -58 50 -55 -127 -51 -148 3 -168 6 -207
26 -166 88 -223 272 -135 434 50 92 158 158 258 158 l45 0 0 97 c0 60 4 93 9
88 5 -6 50 -63 100 -129z m577 -88 c108 -57 169 -157 168 -278 0 -99 -28 -163
-100 -229 -60 -55 -123 -81 -195 -81 l-48 0 -3 -91 -3 -92 -98 129 -99 129
144 5 c163 6 194 16 257 79 91 91 86 235 -11 316 -62 52 -103 65 -220 65
l-107 0 -25 33 c-15 19 -26 37 -26 41 0 4 71 6 158 4 147 -3 160 -5 208 -30z
m-521 -201 c17 -14 28 -36 32 -63 4 -36 1 -46 -24 -74 -77 -86 -212 6 -159
108 20 39 41 51 88 52 24 0 46 -8 63 -23z m299 12 c73 -34 62 -156 -17 -177
-70 -19 -127 21 -127 90 0 75 73 119 144 87z"/>
</g>
</svg>
